<svg width="279" height="241" viewBox="0 0 279 241" fill="none" xmlns="http://www.w3.org/2000/svg">
<path d="M132.864 237.859C149.224 237.988 149.716 237.988 150.208 237.988H151.713C152.712 237.988 153.696 237.988 154.694 238.12C158.42 239.034 162.273 240.863 168.864 240.854C174.814 240.846 180.309 241.865 186.622 238.628C191.954 235.894 195.88 235.303 203.634 230.689C209.376 227.272 217.994 221.794 230.517 207.96C235.279 202.7 241.253 195.804 246.285 189.472C255.57 177.792 262.439 170.753 266.983 162.565C270.951 155.415 277.103 146.268 278.638 131.21C279.618 121.595 279.372 107.934 267.847 86.1001C256.323 64.2658 234.191 35.1403 220.338 19.5153C206.485 3.89037 201.075 1.8284 188.108 0.664626C175.142 -0.499143 155.223 -0.75689 130.062 5.22207C104.901 11.201 75.391 23.0574 52.7819 46.3797C30.1729 69.7019 14.9263 103.467 7.30301 126.723C-0.320287 149.979 -0.320287 162.35 0.186442 171.723C0.693172 181.096 1.56233 187.307 2.54869 191.835C4.1583 199.224 6.7561 206.341 11.1296 212.639C14.0991 216.915 21.1826 223.903 33.7982 230.478C39.7858 233.598 45.4418 235.402 64.8652 236.437C84.2886 237.472 116.503 237.73 132.864 237.859Z" fill="#800000" fill-opacity="0.1"/>
</svg>
