<svg width="323" height="342" viewBox="0 0 323 342" fill="none" xmlns="http://www.w3.org/2000/svg">
<path d="M309.693 189.629L309.693 189.629L310.15 187.922C310.453 186.79 310.752 185.674 311.229 184.588C313.552 180.683 317.106 176.952 319.096 169.476C320.893 162.726 323.89 156.852 321.587 148.563C319.643 141.563 320.065 136.904 316.403 126.5C313.692 118.796 309.168 107.111 294.934 88.0806C289.521 80.8442 282.345 71.6625 275.619 63.7447C263.209 49.1372 256.118 38.8904 246.823 30.879C238.705 23.8824 228.648 13.7127 209.481 6.71357C197.243 2.24467 179.357 -2.2472 147.389 3.19492C115.421 8.63704 70.7249 23.5609 46.1455 33.8121C21.566 44.0632 17.2345 49.4775 11.7791 63.7735C6.32364 78.0694 -0.06211 100.565 0.0914408 131.183C0.24499 161.802 6.74099 199.403 30.2821 233.184C53.8232 266.965 93.2158 296.044 121.222 312.81C149.228 329.576 165.358 333.896 177.732 336.595C190.106 339.294 198.469 340.477 204.672 340.94C214.795 341.696 224.863 341.235 234.402 338.476C240.88 336.602 252.143 331.011 264.546 319.002C270.433 313.302 274.503 307.519 281.752 285.857C289 264.194 299.12 227.756 304.257 209.25C309.393 190.747 309.544 190.187 309.693 189.629Z" fill="#800000" fill-opacity="0.1"/>
</svg>
