<svg width="36" height="36" viewBox="0 0 36 36" fill="none" xmlns="http://www.w3.org/2000/svg">
<path d="M6.30001 7.19995C4.80938 7.19995 3.60001 8.40933 3.60001 9.89995C3.60001 10.7493 3.99938 11.5481 4.68001 12.06L16.38 20.835C17.3419 21.555 18.6581 21.555 19.62 20.835L31.32 12.06C32.0006 11.5481 32.4 10.7493 32.4 9.89995C32.4 8.40933 31.1906 7.19995 29.7 7.19995H6.30001ZM3.60001 14.625V25.2C3.60001 27.1856 5.21438 28.8 7.20001 28.8H28.8C30.7856 28.8 32.4 27.1856 32.4 25.2V14.625L21.24 22.995C19.3219 24.435 16.6781 24.435 14.76 22.995L3.60001 14.625Z" fill="#212121"/>
</svg>
