<svg width="47" height="47" viewBox="0 0 47 47" fill="none" xmlns="http://www.w3.org/2000/svg">
<path d="M35.0223 11.8308C31.9453 8.74646 27.8475 7.05005 23.4927 7.05005C14.5039 7.05005 7.18953 14.3644 7.18953 23.3532C7.18953 26.2246 7.9386 29.0299 9.36328 31.5047L7.05 39.9501L15.6936 37.6808C18.073 38.9807 20.7534 39.6636 23.4853 39.6636H23.4927C32.4741 39.6636 39.95 32.3493 39.95 23.3605C39.95 19.0057 38.0994 14.9152 35.0223 11.8308ZM23.4927 36.9171C21.0545 36.9171 18.6678 36.2635 16.5895 35.0297L16.0975 34.736L10.9716 36.0799L12.3375 31.0788L12.0144 30.5647C10.6558 28.4057 9.94344 25.9161 9.94344 23.3532C9.94344 15.8846 16.0241 9.80396 23.5 9.80396C27.1205 9.80396 30.5206 11.214 33.0763 13.7769C35.6319 16.3399 37.2034 19.7401 37.1961 23.3605C37.1961 30.8365 30.9613 36.9171 23.4927 36.9171ZM30.9245 26.768C30.5206 26.5624 28.5158 25.5783 28.1413 25.4461C27.7667 25.3066 27.495 25.2405 27.2233 25.6518C26.9516 26.063 26.1731 26.9736 25.9308 27.2527C25.6958 27.5244 25.4534 27.5611 25.0495 27.3555C22.6555 26.1585 21.0839 25.2185 19.505 22.5086C19.0864 21.789 19.9236 21.8404 20.702 20.2835C20.8342 20.0118 20.7681 19.7768 20.6653 19.5711C20.5625 19.3655 19.7473 17.3607 19.4095 16.5455C19.0791 15.7524 18.7413 15.8625 18.4916 15.8479C18.2566 15.8332 17.9848 15.8332 17.7131 15.8332C17.4414 15.8332 17.0008 15.936 16.6263 16.3399C16.2517 16.7511 15.2016 17.7352 15.2016 19.74C15.2016 21.7449 16.663 23.6836 16.8613 23.9554C17.0669 24.2271 19.7327 28.3396 23.8231 30.1094C26.4081 31.2257 27.4216 31.3211 28.7141 31.1302C29.4998 31.0127 31.1228 30.1461 31.4606 29.1915C31.7984 28.2368 31.7984 27.4216 31.6956 27.2527C31.6002 27.0691 31.3284 26.9663 30.9245 26.768Z" fill="#212121"/>
</svg>
