<svg width="12" height="12" viewBox="0 0 12 12" fill="none" xmlns="http://www.w3.org/2000/svg">
<path d="M10.0331 5.57616C10.2675 5.81054 10.2675 6.19116 10.0331 6.42554L7.03313 9.42554C6.79876 9.65991 6.41813 9.65991 6.18375 9.42554C5.94938 9.19116 5.94938 8.81054 6.18375 8.57616L8.76001 5.99991L6.18563 3.42366C5.95126 3.18929 5.95126 2.80866 6.18563 2.57429C6.42 2.33991 6.80063 2.33991 7.03501 2.57429L10.035 5.57429L10.0331 5.57616ZM3.43313 2.57616L6.43313 5.57616C6.66751 5.81054 6.66751 6.19116 6.43313 6.42554L3.43313 9.42554C3.19876 9.65991 2.81813 9.65991 2.58376 9.42554C2.34938 9.19116 2.34938 8.81054 2.58376 8.57616L5.16001 5.99991L2.58563 3.42366C2.35126 3.18929 2.35126 2.80866 2.58563 2.57429C2.82001 2.33991 3.20063 2.33991 3.43501 2.57429L3.43313 2.57616Z" fill="#1B4D3E"/>
</svg>
